# Blender v2.93.1 OBJ File: 'skin_default_2.blend'
# www.blender.org
mtllib gauntlets.mtl
o gauntlets_Mesh.001
v 0.545141 1.082412 0.410830
v 0.495480 1.057083 0.467526
v 0.512243 1.053629 0.466740
v 0.523837 1.055223 0.462767
v 0.533828 1.097497 0.386295
v 0.551299 1.092449 0.406275
v 0.546303 1.089408 0.395841
v 0.546196 1.097113 0.398170
v 0.504950 1.124272 0.386470
v 0.491460 1.131209 0.374391
v 0.551579 1.084065 0.404849
v 0.522568 1.082264 0.460861
v 0.467778 1.088581 0.469606
v 0.427546 1.097998 0.464455
v 0.433597 1.113969 0.463902
v 0.429296 1.109511 0.456393
v 0.428789 1.127873 0.456553
v 0.458548 1.135489 0.409535
v 0.452377 1.155091 0.392232
v 0.492127 1.124154 0.378073
v 0.434692 1.135076 0.448447
v 0.430619 1.133157 0.442714
v 0.457974 1.125039 0.443704
v 0.424140 1.125334 0.452042
v 0.468820 1.072699 0.463596
v 0.488080 1.125718 0.372922
v 0.466869 1.139563 0.369793
v 0.521967 1.061777 0.467904
v 0.466923 1.084212 0.467031
v 0.537728 1.104700 0.391709
v 0.541027 1.070574 0.452871
v 0.540386 1.101039 0.423127
v 0.470703 1.138441 0.416753
v 0.445819 1.122058 0.436500
v 0.516945 1.065083 0.445188
v 0.470209 1.152552 0.386353
v 0.505805 1.128641 0.389045
v 0.454314 1.155770 0.406886
v 0.540066 1.059888 -0.449525
v 0.552461 1.072935 -0.423273
v 0.523837 1.055223 -0.462753
v 0.523930 1.060065 -0.455724
v 0.521393 1.074057 -0.462316
v 0.546303 1.089408 -0.395827
v 0.533828 1.097497 -0.386281
v 0.507742 1.113733 -0.381129
v 0.543124 1.096965 -0.416273
v 0.522568 1.082264 -0.460846
v 0.427546 1.097998 -0.464441
v 0.433597 1.113969 -0.463888
v 0.428789 1.127873 -0.456539
v 0.448410 1.151903 -0.405024
v 0.458548 1.135489 -0.409521
v 0.463824 1.145881 -0.383254
v 0.467497 1.138471 -0.386921
v 0.492127 1.124154 -0.378059
v 0.424140 1.125334 -0.452028
v 0.434692 1.135076 -0.448433
v 0.457974 1.125039 -0.443689
v 0.445819 1.122058 -0.436486
v 0.430619 1.133157 -0.442700
v 0.429296 1.109511 -0.456379
v 0.424795 1.095224 -0.458896
v 0.446006 1.081378 -0.462025
v 0.521967 1.061777 -0.467890
v 0.466923 1.084212 -0.467016
v 0.546196 1.097113 -0.398156
v 0.504950 1.124272 -0.386456
v 0.541027 1.070574 -0.452857
v 0.470703 1.138441 -0.416739
v 0.447542 1.084950 -0.467395
v 0.467778 1.088581 -0.469592
v 0.490364 1.064050 -0.459187
v 0.516945 1.065083 -0.445174
v 0.533200 1.074323 -0.425223
v 0.471451 1.144257 -0.371423
v 0.491460 1.131209 -0.374377
v 0.470209 1.152552 -0.386339
v 0.505805 1.128641 -0.389031
v 0.454314 1.155770 -0.406872
v 0.457707 1.158338 -0.395289
v 0.448410 1.151903 0.405038
v 0.457707 1.158338 0.395303
v 0.463824 1.145881 0.383268
v 0.471451 1.144257 0.371437
v 0.523930 1.060065 0.455738
v 0.521393 1.074057 0.462330
v 0.540066 1.059888 0.449539
v 0.552461 1.072935 0.423287
v 0.551860 1.081969 0.429952
v 0.543124 1.096965 0.416287
v 0.452377 1.155091 -0.392218
v 0.466869 1.139563 -0.369779
v 0.551860 1.081969 -0.429937
v 0.540386 1.101039 -0.423112
v 0.551579 1.084065 -0.404835
v 0.551299 1.092449 -0.406261
v 0.537728 1.104700 -0.391694
v 0.488080 1.125718 -0.372907
v 0.447542 1.084950 0.467409
v 0.452631 1.082530 -0.461719
v 0.468819 1.072699 -0.463582
v 0.499380 1.064286 -0.472925
v 0.495480 1.057083 -0.467511
v 0.512243 1.053629 -0.466725
v 0.512096 1.060743 -0.471208
v 0.424795 1.095224 0.458911
v 0.446006 1.081378 0.462039
v 0.452631 1.082530 0.461734
v 0.499380 1.064286 0.472939
v 0.512096 1.060744 0.471222
v 0.487065 1.097438 -0.427042
v 0.436589 1.105910 -0.452392
v 0.545141 1.082412 -0.410816
v 0.436589 1.105910 0.452406
v 0.487065 1.097438 0.427056
v 0.490364 1.064050 0.459202
v 0.533200 1.074323 0.425237
v 0.507742 1.113733 0.381144
v 0.467497 1.138471 0.386935
vt 0.036862 0.772439
vt 0.038256 0.912854
vt 0.003471 0.801967
vt 0.004268 0.884038
vt 0.092729 0.715004
vt 0.050944 0.729928
vt 0.027964 0.752206
vt 0.050011 0.954319
vt 0.027740 0.933553
vt 0.092160 0.972433
vt 0.173023 0.974684
vt 0.353199 0.900808
vt 0.351968 0.936440
vt 0.304129 0.886020
vt 0.314003 0.959708
vt 0.293581 0.948301
vt 0.222255 0.978231
vt 0.353199 0.786765
vt 0.304050 0.801424
vt 0.352043 0.751099
vt 0.314145 0.727754
vt 0.293700 0.739179
vt 0.222404 0.709191
vt 0.173176 0.712730
vt 0.300023 0.690953
vt 0.233996 0.696124
vt 0.233842 0.991324
vt 0.299888 0.996529
vt 0.116513 0.734813
vt 0.065373 0.793068
vt 0.049323 0.861573
vt 0.181415 0.836947
vt 0.030315 0.289793
vt 0.027842 0.263646
vt 0.052299 0.285672
vt 0.071904 0.255635
vt 0.041165 0.059046
vt 0.065472 0.034645
vt 0.062255 0.066471
vt 0.082100 0.048950
vt 0.111565 0.012587
vt 0.113609 0.038354
vt 0.196662 0.012511
vt 0.216577 0.038839
vt 0.246165 0.010069
vt 0.263091 0.019906
vt 0.263252 0.003471
vt 0.079080 0.098354
vt 0.221979 0.052061
vt 0.036193 0.083876
vt 0.032323 0.210904
vt 0.085971 0.237753
vt 0.210520 0.316973
vt 0.034506 0.139222
vt 0.091353 0.117836
vt 0.297285 0.231188
vt 0.299473 0.142832
vt 0.309795 0.356394
vt 0.249319 0.354404
vt 0.322057 0.315710
vt 0.353830 0.291846
vt 0.354169 0.264931
vt 0.321244 0.024185
vt 0.328938 0.064130
vt 0.354449 0.113988
vt 0.355679 0.089291
vt 0.317071 0.371493
vt 0.338286 0.335367
vt 0.370000 0.298517
vt 0.367799 0.119205
vt 0.334600 0.149725
vt 0.368986 0.259832
vt 0.333922 0.225317
vt 0.069566 0.305446
vt 0.100249 0.319237
vt 0.203679 0.329870
vt 0.036862 0.602524
vt 0.003471 0.572997
vt 0.038256 0.462109
vt 0.004269 0.490925
vt 0.092728 0.659959
vt 0.050944 0.645036
vt 0.027964 0.622758
vt 0.050011 0.420645
vt 0.092161 0.402530
vt 0.027741 0.441410
vt 0.173023 0.400280
vt 0.353199 0.474156
vt 0.304129 0.488943
vt 0.351968 0.438524
vt 0.314003 0.415256
vt 0.293581 0.426663
vt 0.222255 0.396733
vt 0.353199 0.588199
vt 0.352043 0.623865
vt 0.304050 0.573540
vt 0.314145 0.647210
vt 0.293700 0.635785
vt 0.222404 0.665773
vt 0.173176 0.662234
vt 0.300022 0.684011
vt 0.233995 0.678840
vt 0.233843 0.383640
vt 0.299889 0.378435
vt 0.116513 0.640151
vt 0.065373 0.581896
vt 0.049323 0.513390
vt 0.181415 0.538016
vt 0.403787 0.085171
vt 0.425770 0.089292
vt 0.401313 0.111318
vt 0.445375 0.119329
vt 0.409664 0.291088
vt 0.452552 0.276610
vt 0.414636 0.315918
vt 0.435726 0.308492
vt 0.405794 0.164059
vt 0.459442 0.137211
vt 0.583991 0.057991
vt 0.407977 0.235741
vt 0.464824 0.257128
vt 0.670756 0.143776
vt 0.672944 0.232133
vt 0.683265 0.018570
vt 0.695528 0.059254
vt 0.622789 0.020560
vt 0.727301 0.083118
vt 0.727641 0.110034
vt 0.694714 0.350779
vt 0.636562 0.355058
vt 0.702408 0.310834
vt 0.595451 0.322903
vt 0.727920 0.260976
vt 0.729150 0.285674
vt 0.690542 0.003471
vt 0.711757 0.039598
vt 0.743472 0.076447
vt 0.741270 0.255760
vt 0.708071 0.225240
vt 0.742458 0.115132
vt 0.707393 0.149647
vt 0.443037 0.069518
vt 0.473720 0.055726
vt 0.577151 0.045094
vt 0.455571 0.326014
vt 0.487080 0.336610
vt 0.590048 0.336125
vt 0.370000 0.084833
vt 0.345949 0.047579
vt 0.329715 0.010713
vt 0.003471 0.219641
vt 0.005528 0.126947
vt 0.743472 0.290132
vt 0.719421 0.327385
vt 0.703186 0.364251
vt 0.636724 0.371494
vt 0.376942 0.155323
vt 0.378999 0.248016
vt 0.619636 0.364895
vt 0.438943 0.340319
vt 0.485036 0.362377
vt 0.570132 0.362453
vt 0.247567 0.371408
vt 0.230733 0.362588
vt 0.621038 0.003556
vt 0.604204 0.012376
vt 0.554043 0.020540
vt 0.468414 0.030209
vt 0.425553 0.055090
vt 0.180572 0.354424
vt 0.094943 0.344755
vt 0.052082 0.319873
vn -0.0911 -0.8730 -0.4791
vn -0.2676 -0.8272 -0.4941
vn -0.2061 -0.8338 -0.5122
vn -0.2074 -0.8335 -0.5122
vn -0.2542 -0.8261 -0.5030
vn -0.1663 -0.7639 -0.6235
vn -0.0812 -0.8203 -0.5661
vn -0.3122 -0.8860 -0.3427
vn -0.2059 -0.8756 -0.4369
vn -0.4267 -0.8458 -0.3204
vn -0.4452 -0.7916 -0.4185
vn -0.7421 -0.5595 -0.3692
vn -0.7413 -0.5600 -0.3700
vn -0.6560 -0.6284 -0.4181
vn -0.6998 -0.6616 -0.2693
vn -0.6301 -0.6194 -0.4683
vn -0.5556 -0.8289 -0.0652
vn -0.5756 -0.3841 -0.7219
vn -0.5180 -0.5007 -0.6935
vn -0.5754 -0.3852 -0.7215
vn -0.4491 -0.3975 -0.8002
vn -0.5380 -0.5266 -0.6582
vn -0.1645 -0.4165 -0.8942
vn -0.3958 -0.6538 -0.6449
vn 0.0265 -0.1816 -0.9830
vn -0.0030 -0.1985 -0.9801
vn -0.5683 -0.7942 0.2153
vn -0.5549 -0.7944 0.2470
vn -0.3527 -0.7555 -0.5521
vn -0.1830 -0.8285 -0.5292
vn -0.1129 -0.8330 -0.5416
vn -0.4350 -0.6894 -0.5792
vn 0.9757 0.1742 0.1330
vn 0.9806 0.1386 0.1388
vn 0.9811 0.1343 0.1394
vn 0.9835 0.1109 0.1431
vn 0.8843 0.1069 -0.4545
vn 0.8058 0.1721 -0.5667
vn 0.8804 0.1240 -0.4577
vn 0.7682 0.1846 -0.6130
vn 0.5421 0.3050 -0.7830
vn 0.5655 0.2888 -0.7725
vn 0.4339 0.4860 -0.7586
vn 0.4519 0.4948 -0.7423
vn 0.4731 0.4940 -0.7295
vn 0.7014 0.1886 -0.6874
vn 0.5842 -0.3313 -0.7409
vn 0.6479 -0.2489 -0.7199
vn 0.7162 -0.2684 -0.6442
vn 0.7018 0.2548 -0.6652
vn 0.7073 0.2512 -0.6608
vn 0.6937 -0.1666 0.7007
vn 0.7195 -0.1328 0.6817
vn 0.7216 -0.1299 0.6800
vn 0.7524 -0.0859 0.6531
vn 0.5911 0.5020 0.6314
vn 0.3873 0.4455 0.8072
vn 0.3149 0.1234 0.9411
vn 0.1571 0.4813 0.8624
vn 0.6570 0.5713 0.4919
vn 0.6460 0.7180 0.2592
vn 0.3303 0.6547 0.6799
vn 0.4578 0.7888 0.4100
vn -0.0996 0.0721 0.9924
vn -0.1145 0.0648 0.9913
vn 0.2106 0.4240 0.8809
vn 0.3839 0.5325 0.7544
vn 0.3837 0.5337 0.7536
vn 0.5449 0.7513 -0.3724
vn 0.5770 0.8100 0.1049
vn 0.5361 0.7504 -0.3866
vn 0.5097 0.8526 0.1156
vn 0.5820 0.7411 0.3348
vn 0.5822 0.7410 0.3346
vn 0.7844 0.6179 -0.0540
vn -0.8971 0.3493 0.2704
vn -0.8919 0.3391 0.2992
vn -0.8946 0.3443 0.2848
vn -0.8895 0.3350 0.3106
vn -0.8601 -0.0282 0.5094
vn -0.7490 -0.0265 0.6621
vn -0.8215 -0.0277 0.5695
vn -0.6890 -0.0254 0.7243
vn -0.3854 0.1536 0.9099
vn -0.4234 0.0839 0.9021
vn -0.4704 -0.0111 0.8824
vn -0.4968 -0.0698 0.8651
vn -0.6214 0.7530 0.2165
vn -0.6266 0.7529 0.2011
vn -0.6239 0.7530 0.2091
vn -0.6287 0.7529 0.1948
vn 0.2666 0.8410 -0.4709
vn 0.2422 0.7394 -0.6282
vn 0.2573 0.8012 -0.5402
vn 0.2314 0.6969 -0.6788
vn 0.2416 0.4509 0.8593
vn 0.2416 0.4158 0.8768
vn 0.1888 0.4978 0.8465
vn 0.2147 0.4547 0.8644
vn 0.1697 0.5239 0.8347
vn 0.6601 0.7510 0.0165
vn 0.5183 0.8425 0.1470
vn 0.5985 0.7936 0.1099
vn 0.5517 0.8226 0.1377
vn 0.4864 0.8583 0.1633
vn -0.3749 0.8885 0.2648
vn -0.3741 0.8885 0.2658
vn -0.3746 0.8885 0.2651
vn -0.3738 0.8885 0.2661
vn -0.0911 -0.8730 0.4791
vn -0.2061 -0.8338 0.5122
vn -0.2676 -0.8272 0.4941
vn -0.2074 -0.8335 0.5122
vn -0.2542 -0.8261 0.5030
vn -0.1663 -0.7639 0.6235
vn -0.0812 -0.8203 0.5661
vn -0.3122 -0.8860 0.3427
vn -0.4267 -0.8458 0.3204
vn -0.2059 -0.8756 0.4369
vn -0.4452 -0.7916 0.4185
vn -0.7421 -0.5595 0.3692
vn -0.6560 -0.6284 0.4181
vn -0.7413 -0.5600 0.3700
vn -0.6998 -0.6616 0.2692
vn -0.6301 -0.6194 0.4683
vn -0.5556 -0.8289 0.0652
vn -0.5756 -0.3841 0.7219
vn -0.5754 -0.3852 0.7215
vn -0.5180 -0.5007 0.6935
vn -0.4491 -0.3975 0.8002
vn -0.5380 -0.5266 0.6582
vn -0.1645 -0.4165 0.8942
vn -0.3957 -0.6538 0.6449
vn 0.0265 -0.1816 0.9830
vn -0.0030 -0.1985 0.9801
vn -0.5683 -0.7942 -0.2153
vn -0.5549 -0.7944 -0.2470
vn -0.3527 -0.7555 0.5521
vn -0.1830 -0.8285 0.5292
vn -0.1129 -0.8330 0.5416
vn -0.4350 -0.6894 0.5792
vn 0.9757 0.1742 -0.1330
vn 0.9811 0.1343 -0.1394
vn 0.9806 0.1386 -0.1388
vn 0.9835 0.1110 -0.1431
vn 0.6937 -0.1666 -0.7007
vn 0.7216 -0.1299 -0.6800
vn 0.7195 -0.1328 -0.6817
vn 0.7524 -0.0859 -0.6531
vn 0.5911 0.5020 -0.6314
vn 0.3149 0.1234 -0.9411
vn 0.3873 0.4455 -0.8072
vn 0.1571 0.4813 -0.8624
vn 0.6570 0.5713 -0.4919
vn 0.6460 0.7180 -0.2592
vn 0.3303 0.6547 -0.6799
vn 0.4578 0.7888 -0.4100
vn -0.0996 0.0721 -0.9924
vn 0.2106 0.4240 -0.8809
vn -0.1145 0.0648 -0.9913
vn 0.3839 0.5325 -0.7544
vn 0.3837 0.5337 -0.7537
vn 0.5449 0.7513 0.3724
vn 0.5361 0.7504 0.3866
vn 0.5770 0.8100 -0.1049
vn 0.5096 0.8526 -0.1156
vn 0.5820 0.7411 -0.3348
vn 0.5822 0.7410 -0.3346
vn 0.7844 0.6179 0.0540
vn -0.8971 0.3493 -0.2704
vn -0.8946 0.3443 -0.2848
vn -0.8919 0.3391 -0.2992
vn -0.8895 0.3350 -0.3106
vn -0.8601 -0.0282 -0.5094
vn -0.8215 -0.0277 -0.5695
vn -0.7490 -0.0265 -0.6621
vn -0.6890 -0.0254 -0.7243
vn -0.3854 0.1535 -0.9099
vn -0.4704 -0.0111 -0.8824
vn -0.4234 0.0839 -0.9021
vn -0.4968 -0.0698 -0.8651
vn -0.6214 0.7530 -0.2165
vn -0.6239 0.7530 -0.2091
vn -0.6266 0.7529 -0.2011
vn -0.6287 0.7529 -0.1948
vn 0.2666 0.8410 0.4709
vn 0.2573 0.8012 0.5402
vn 0.2422 0.7394 0.6282
vn 0.2314 0.6969 0.6788
vn 0.2416 0.4508 -0.8593
vn 0.1888 0.4978 -0.8465
vn 0.2416 0.4158 -0.8768
vn 0.2147 0.4547 -0.8644
vn 0.1697 0.5239 -0.8347
vn 0.6601 0.7510 -0.0165
vn 0.5985 0.7936 -0.1099
vn 0.5183 0.8425 -0.1470
vn 0.5517 0.8226 -0.1377
vn 0.4864 0.8583 -0.1633
vn -0.3749 0.8885 -0.2648
vn -0.3746 0.8885 -0.2651
vn -0.3741 0.8885 -0.2658
vn -0.3738 0.8885 -0.2661
vn -0.5552 0.8310 0.0349
vn -0.5488 0.8352 0.0338
vn -0.5408 0.8405 0.0325
vn -0.5331 0.8454 0.0313
vn -0.0069 0.6930 -0.7209
vn -0.0881 0.6694 -0.7377
vn -0.1974 0.6293 -0.7517
vn -0.2627 0.6006 -0.7552
vn -0.5286 0.7164 -0.4553
vn -0.5383 0.7124 -0.4502
vn -0.5504 0.7072 -0.4437
vn -0.5622 0.7020 -0.4372
vn 0.2223 0.1219 -0.9673
vn 0.2224 0.1220 -0.9673
vn 0.2224 0.1221 -0.9673
vn 0.3323 -0.3520 0.8750
vn 0.3546 -0.3243 0.8770
vn 0.3465 -0.3345 0.8764
vn 0.3683 -0.3068 0.8776
vn 0.9209 -0.1892 0.3408
vn 0.9208 -0.1898 0.3407
vn 0.9209 -0.1893 0.3408
vn 0.9208 -0.1901 0.3407
vn 0.9050 0.2899 -0.3113
vn 0.9130 0.2594 -0.3148
vn 0.9101 0.2711 -0.3135
vn 0.9163 0.2456 -0.3163
vn -0.5552 0.8310 -0.0349
vn -0.5408 0.8405 -0.0325
vn -0.5488 0.8352 -0.0338
vn -0.5331 0.8454 -0.0313
vn -0.0069 0.6930 0.7209
vn -0.1974 0.6293 0.7517
vn -0.0881 0.6694 0.7377
vn -0.2627 0.6006 0.7552
vn -0.5286 0.7164 0.4553
vn -0.5504 0.7072 0.4437
vn -0.5383 0.7124 0.4502
vn -0.5623 0.7019 0.4372
vn 0.2223 0.1219 0.9673
vn 0.2223 0.1220 0.9673
vn 0.2224 0.1221 0.9673
vn 0.3323 -0.3520 -0.8750
vn 0.3465 -0.3345 -0.8764
vn 0.3546 -0.3244 -0.8770
vn 0.3684 -0.3068 -0.8776
vn 0.9209 -0.1892 -0.3408
vn 0.9209 -0.1893 -0.3408
vn 0.9208 -0.1898 -0.3407
vn 0.9208 -0.1901 -0.3407
vn 0.9050 0.2899 0.3113
vn 0.9101 0.2711 0.3135
vn 0.9130 0.2594 0.3148
vn 0.9163 0.2456 0.3163
vn 0.7018 0.2548 0.6652
vn 0.7073 0.2512 0.6608
vn 0.7014 0.1886 0.6874
vn 0.6479 -0.2489 0.7199
vn 0.5842 -0.3313 0.7409
vn 0.7162 -0.2684 0.6442
vn 0.8843 0.1069 0.4545
vn 0.8804 0.1240 0.4577
vn 0.8057 0.1721 0.5667
vn 0.7682 0.1846 0.6130
vn 0.5421 0.3050 0.7830
vn 0.5655 0.2888 0.7725
vn 0.4339 0.4860 0.7586
vn 0.4519 0.4948 0.7423
vn 0.4731 0.4940 0.7295
vn -0.0197 -0.5049 0.8630
vn -0.0119 -0.5061 0.8624
vn -0.0130 -0.5637 0.8259
vn 0.0680 -0.8584 0.5084
vn 0.1699 -0.8422 0.5116
vn 0.0369 -0.9068 0.4199
vn -0.5054 -0.6447 -0.5735
vn 0.1700 -0.8422 -0.5116
vn 0.0680 -0.8584 -0.5084
vn 0.0369 -0.9068 -0.4199
vn -0.0130 -0.5637 -0.8259
vn -0.0197 -0.5049 -0.8629
vn -0.0119 -0.5061 -0.8624
vn -0.2965 -0.3175 -0.9007
vn -0.3198 -0.3188 -0.8922
vn -0.3401 -0.3298 -0.8807
vn -0.2130 -0.4925 -0.8438
vn -0.2402 -0.4967 -0.8340
vn 0.1668 -0.5306 -0.8310
vn 0.1289 -0.5310 -0.8375
vn 0.3298 -0.5126 -0.7927
vn 0.3199 -0.5263 -0.7878
vn -0.5054 -0.6447 0.5735
vn -0.2964 -0.3175 0.9007
vn -0.3401 -0.3298 0.8807
vn -0.3198 -0.3188 0.8922
vn -0.2130 -0.4925 0.8438
vn -0.2402 -0.4967 0.8340
vn 0.1668 -0.5306 0.8310
vn 0.1289 -0.5310 0.8375
vn 0.3298 -0.5126 0.7927
vn 0.3199 -0.5263 0.7878
usemtl None
s 1
f 86/1/1 1/2/2 88/3/3
f 1/2/2 89/4/4 88/3/3
f 2/5/5 86/1/1 3/6/6
f 86/1/1 4/7/7 3/6/6
f 7/8/8 11/9/9 5/10/10
f 11/9/9 1/2/2 5/10/10
f 5/10/10 1/2/2 119/11/11
f 82/12/12 19/13/13 18/14/14
f 19/13/13 84/15/15 18/14/14
f 18/14/14 84/15/15 120/16/16
f 84/15/15 20/17/17 120/16/16
f 120/16/16 20/17/17 119/11/11
f 22/18/18 34/19/19 24/20/20
f 24/20/20 34/19/19 16/21/21
f 34/19/19 115/22/22 16/21/21
f 16/21/21 115/22/22 109/23/23
f 115/22/22 25/24/24 109/23/23
f 107/25/25 16/21/21 108/26/26
f 16/21/21 109/23/23 108/26/26
f 20/17/17 84/15/15 26/27/27
f 84/15/15 27/28/28 26/27/27
f 25/24/24 117/29/29 2/5/5
f 117/29/29 35/30/30 2/5/5
f 2/5/5 35/30/30 86/1/1
f 35/30/30 118/31/31 86/1/1
f 86/1/1 118/31/31 1/2/2
f 34/19/19 116/32/32 115/22/22
f 115/22/22 116/32/32 25/24/24
f 25/24/24 116/32/32 117/29/29
f 117/29/29 116/32/32 35/30/30
f 35/30/30 116/32/32 118/31/31
f 118/31/31 116/32/32 1/2/2
f 1/2/2 116/32/32 119/11/11
f 119/11/11 116/32/32 120/16/16
f 120/16/16 116/32/32 18/14/14
f 116/32/32 34/19/19 18/14/14
s 2
f 4/33/33 86/34/34 28/35/35
f 86/34/34 87/36/36 28/35/35
s 3
f 11/37/37 7/38/38 6/39/39
f 6/39/39 7/38/38 8/40/40
f 7/38/38 5/41/41 8/40/40
f 8/40/40 5/41/41 30/42/42
f 5/41/41 119/43/43 30/42/42
f 30/42/42 119/43/43 9/44/44
f 119/43/43 20/45/45 9/44/44
s 4
f 9/44/46 20/45/47 10/46/48
f 20/45/47 26/47/49 10/46/48
f 91/48/50 9/44/46 37/49/51
f 37/49/51 9/44/46 10/46/48
s 5
f 1/50/52 11/37/53 91/48/54
f 11/37/53 6/39/55 91/48/54
s 6
f 31/51/56 12/52/57 87/36/58
f 12/52/57 13/53/59 87/36/58
f 31/51/56 90/54/60 12/52/57
f 90/54/60 32/55/61 12/52/57
f 12/52/57 32/55/61 23/56/62
f 32/55/61 33/57/63 23/56/62
f 14/58/64 100/59/65 15/60/66
f 100/59/65 13/53/59 15/60/66
f 15/60/66 13/53/59 23/56/62
f 13/53/59 12/52/57 23/56/62
f 15/60/66 23/56/62 17/61/67
f 23/56/62 21/62/68 17/61/67
f 85/63/69 36/64/70 10/46/71
f 10/46/71 36/64/70 37/49/72
f 36/64/70 33/57/63 37/49/72
f 37/49/72 33/57/63 32/55/61
f 38/65/73 33/57/63 83/66/74
f 83/66/74 33/57/63 36/64/70
f 90/54/60 91/48/75 32/55/61
f 32/55/61 91/48/75 37/49/72
s 7
f 14/58/76 15/60/77 107/67/78
f 15/60/77 16/68/79 107/67/78
s 8
f 15/60/80 17/61/81 16/68/82
f 17/61/81 24/69/83 16/68/82
s 9
f 38/65/84 82/70/85 33/57/86
f 82/70/85 18/71/87 33/57/86
s 10
f 17/61/88 21/62/89 24/69/90
f 24/69/90 21/62/89 22/72/91
s 11
f 21/62/92 23/56/93 22/72/94
f 22/72/94 23/56/93 34/73/95
s 12
f 111/74/96 28/35/97 110/75/98
f 28/35/97 87/36/99 110/75/98
f 110/75/98 87/36/99 29/76/100
s 13
f 8/40/101 30/42/102 6/39/103
f 6/39/103 30/42/102 91/48/104
f 30/42/102 9/44/105 91/48/104
s 14
f 23/56/106 33/57/107 34/73/108
f 33/57/107 18/71/109 34/73/108
s 15
f 42/77/110 39/78/111 114/79/112
f 114/79/112 39/78/111 40/80/113
f 104/81/114 105/82/115 42/77/110
f 42/77/110 105/82/115 41/83/116
f 44/84/117 45/85/118 96/86/119
f 96/86/119 45/85/118 114/79/112
f 45/85/118 46/87/120 114/79/112
f 52/88/121 53/89/122 92/90/123
f 92/90/123 53/89/122 54/91/124
f 53/89/122 55/92/125 54/91/124
f 54/91/124 55/92/125 56/93/126
f 55/92/125 46/87/120 56/93/126
f 61/94/127 57/95/128 60/96/129
f 57/95/128 62/97/130 60/96/129
f 60/96/129 62/97/130 113/98/131
f 62/97/130 101/99/132 113/98/131
f 113/98/131 101/99/132 102/100/133
f 63/101/134 64/102/135 62/97/130
f 62/97/130 64/102/135 101/99/132
f 56/93/126 99/103/136 54/91/124
f 54/91/124 99/103/136 93/104/137
f 102/100/133 104/81/114 73/105/138
f 73/105/138 104/81/114 74/106/139
f 104/81/114 42/77/110 74/106/139
f 74/106/139 42/77/110 75/107/140
f 42/77/110 114/79/112 75/107/140
f 53/89/122 60/96/129 112/108/141
f 60/96/129 113/98/131 112/108/141
f 113/98/131 102/100/133 112/108/141
f 102/100/133 73/105/138 112/108/141
f 73/105/138 74/106/139 112/108/141
f 74/106/139 75/107/140 112/108/141
f 75/107/140 114/79/112 112/108/141
f 114/79/112 46/87/120 112/108/141
f 46/87/120 55/92/125 112/108/141
f 112/108/141 55/92/125 53/89/122
s 16
f 41/109/142 65/110/143 42/111/144
f 42/111/144 65/110/143 43/112/145
s 17
f 114/113/146 47/114/147 96/115/148
f 96/115/148 47/114/147 97/116/149
s 18
f 69/117/150 43/112/151 48/118/152
f 48/118/152 43/112/151 72/119/153
f 69/117/150 48/118/152 94/120/154
f 94/120/154 48/118/152 95/121/155
f 48/118/152 59/122/156 95/121/155
f 95/121/155 59/122/156 70/123/157
f 49/124/158 50/125/159 71/126/160
f 71/126/160 50/125/159 72/119/153
f 50/125/159 59/122/156 72/119/153
f 72/119/153 59/122/156 48/118/152
f 50/125/159 51/127/161 59/122/156
f 59/122/156 51/127/161 58/128/162
f 76/129/163 77/130/164 78/131/165
f 77/130/164 79/132/166 78/131/165
f 78/131/165 79/132/166 70/123/157
f 79/132/166 95/121/155 70/123/157
f 80/133/167 81/134/168 70/123/157
f 81/134/168 78/131/165 70/123/157
f 94/120/154 95/121/155 47/114/169
f 95/121/155 79/132/166 47/114/169
s 19
f 49/124/170 63/135/171 50/125/172
f 50/125/172 63/135/171 62/136/173
s 20
f 50/125/174 62/136/175 51/127/176
f 51/127/176 62/136/175 57/137/177
s 21
f 80/133/178 70/123/179 52/138/180
f 52/138/180 70/123/179 53/139/181
s 22
f 51/127/182 57/137/183 58/128/184
f 57/137/183 61/140/185 58/128/184
s 23
f 58/128/186 61/140/187 59/122/188
f 61/140/187 60/141/189 59/122/188
s 24
f 106/142/190 103/143/191 65/110/192
f 65/110/192 103/143/191 43/112/193
f 103/143/191 66/144/194 43/112/193
s 25
f 67/145/195 97/116/196 98/146/197
f 97/116/196 47/114/198 98/146/197
f 98/146/197 47/114/198 68/147/199
s 26
f 59/122/200 60/141/201 70/123/202
f 70/123/202 60/141/201 53/139/203
s 27
f 82/70/204 38/65/205 19/148/206
f 38/65/205 83/66/207 19/148/206
s 28
f 19/148/208 83/66/209 84/149/210
f 83/66/209 36/64/211 84/149/210
s 29
f 84/149/212 36/64/213 27/150/214
f 36/64/213 85/63/215 27/150/214
s 30
f 85/63/216 10/46/217 27/150/216
f 27/150/216 10/46/217 26/47/218
s 31
f 86/34/219 88/151/220 87/36/221
f 87/36/221 88/151/220 31/51/222
s 32
f 88/151/223 89/152/224 31/51/225
f 31/51/225 89/152/224 90/54/226
s 33
f 89/152/227 1/50/228 90/54/229
f 1/50/228 91/48/230 90/54/229
s 34
f 52/138/231 92/153/232 80/133/233
f 80/133/233 92/153/232 81/134/234
s 35
f 92/153/235 54/154/236 81/134/237
f 81/134/237 54/154/236 78/131/238
s 36
f 54/154/239 93/155/240 78/131/241
f 78/131/241 93/155/240 76/129/242
s 37
f 76/129/243 93/155/243 77/130/244
f 93/155/243 99/156/245 77/130/244
s 38
f 42/111/246 43/112/247 39/157/248
f 43/112/247 69/117/249 39/157/248
s 39
f 39/157/250 69/117/251 40/158/252
f 69/117/251 94/120/253 40/158/252
s 40
f 40/158/254 94/120/255 114/113/256
f 114/113/256 94/120/255 47/114/257
s 41
f 47/114/258 79/132/259 68/147/260
f 79/132/259 77/130/261 68/147/260
f 68/147/260 77/130/261 56/159/262
f 56/159/262 77/130/261 99/156/263
s 42
f 96/115/264 97/116/265 44/160/266
f 97/116/265 67/145/267 44/160/266
f 44/160/266 67/145/267 45/161/268
f 67/145/267 98/146/269 45/161/268
f 45/161/268 98/146/269 46/162/270
f 98/146/269 68/147/271 46/162/270
f 46/162/270 68/147/271 56/159/272
s 43
f 87/36/273 13/53/274 29/76/275
f 29/76/275 13/53/274 100/59/276
f 108/163/277 109/164/278 100/59/276
f 100/59/276 109/164/278 29/76/275
s 44
f 49/124/279 71/126/279 63/135/279
f 63/135/279 71/126/279 64/165/279
s 45
f 64/165/280 71/126/281 101/166/282
f 71/126/281 66/144/283 101/166/282
f 43/112/284 66/144/283 72/119/285
f 66/144/283 71/126/281 72/119/285
s 46
f 101/166/286 66/144/287 102/167/288
f 66/144/287 103/143/289 102/167/288
f 102/167/288 103/143/289 104/168/290
f 104/168/290 103/143/289 105/169/291
f 103/143/289 106/142/292 105/169/291
f 105/169/291 106/142/292 41/109/293
f 106/142/292 65/110/294 41/109/293
s 47
f 14/58/295 107/67/295 100/59/295
f 107/67/295 108/163/295 100/59/295
s 48
f 109/164/296 25/170/297 29/76/298
f 29/76/298 25/170/297 110/75/299
f 25/170/297 2/171/300 110/75/299
f 2/171/300 3/172/301 110/75/299
f 110/75/299 3/172/301 111/74/302
f 3/172/301 4/33/303 111/74/302
f 111/74/302 4/33/303 28/35/304
